<?xml version="1.0" encoding="utf-8"?>
<!-- Generator: Adobe Illustrator 27.0.1, SVG Export Plug-In . SVG Version: 6.00 Build 0)  -->
<svg version="1.1" id="Layer_1" xmlns="http://www.w3.org/2000/svg" xmlns:xlink="http://www.w3.org/1999/xlink" x="0px" y="0px"
	 viewBox="0 0 1125 1125" style="enable-background:new 0 0 1125 1125;" xml:space="preserve">
<g>
	<g>
		<path d="M263.91,246.15c40-12.03,82.68-11.29,123.68-5.45c61.02,9.1,119.82,29.83,175.26,56.5
			c35.58-16.9,72.29-31.57,110.22-42.31c39.14-11.06,79.62-18.38,120.4-18.27c35.82,0.24,72.78,6.36,103.87,25.06
			c24.13,14.33,43.04,37.26,51.94,63.92c11.11,32.6,8.7,68.22,0.45,101.18c-12.55,49.37-37.41,94.65-66.15,136.34
			c25.02,35.71,46.5,74.31,60.26,115.81c7.46,22.77,12.49,46.53,12.91,70.56c0.36,19.25-2.43,38.72-9.6,56.66
			c-6.33,15.96-16.2,30.51-28.73,42.24c-24.13,22.69-56.68,34.16-89.02,38.54c-44.53,5.93-89.8,0.45-133.27-9.79
			c-45.98-10.98-90.36-27.9-132.97-48.23c-59.37,27.92-122.25,50.26-187.73,57.98c-38.35,4.34-78.08,3.84-115.08-8.18
			c-26.77-8.64-51.77-24.63-68.09-47.87c-12.85-17.96-20.06-39.57-22.21-61.46c-3.49-35.79,4.66-71.68,17.26-105.01
			c13.76-36.07,33.11-69.77,55.12-101.39c-21.03-30.11-39.52-62.16-53.16-96.32c-10.89-27.49-18.72-56.52-19.92-86.17
			c-1.28-29.32,5.03-59.73,22.03-84.06C208.38,271.47,235.3,254.71,263.91,246.15z M287.36,265.87c-28.23,4.67-56.4,16.1-76.26,37.3
			c-17.73,18.58-27.22,43.94-28.71,69.37c-1.87,29.36,4.88,58.59,15.11,85.95c12.78,33.77,31.08,65.23,52.05,94.55
			c32.04-43.8,69.39-83.56,109.93-119.58c51.09-45.26,107.23-84.86,167.13-117.59c-41.7-20.04-85.48-36.19-130.86-45.53
			C360.2,263.17,323.34,259.94,287.36,265.87z M707.59,275.58c-37.33,9.66-73.49,23.56-108.2,40.3
			c51.62,28.16,100.38,61.51,145.61,99.08c48.92,40.76,93.79,86.65,131.46,138.08c22.56-31.59,42.12-65.67,54.88-102.45
			c10.18-29.77,16.04-61.97,10.37-93.29c-3.15-17.34-10.29-34.04-21.34-47.81c-10.42-13.13-24.16-23.43-39.25-30.6
			c-18.94-9.05-39.77-13.54-60.61-15.27C782.53,260.63,744.35,266.18,707.59,275.58z M484.5,384.56
			c-49.82,35.95-95.86,77.41-135.36,124.54c-23.57,28.25-44.85,58.56-61.82,91.26c32.56,36.91,69.18,70.16,108.36,99.9
			c51.44,38.97,107.48,72.08,167.16,96.73c51.27-20.85,99.68-48.41,144.92-80.22c47.78-33.77,92.17-72.52,130.92-116.41
			c-29.23-55.91-70.13-104.98-115.61-148.38c-48.16-45.58-102.1-85.05-160.04-117.28C535.86,349.69,509.68,366.44,484.5,384.56z
			 M255.74,729.54c1.89,18.29,7.83,36.33,18.29,51.54c10.49,15.48,25.42,27.67,42.14,35.89c29.74,14.56,63.64,17.98,96.34,16.54
			c39.09-1.89,77.55-10.75,114.58-23.12c-34.89-19-68.46-40.39-100.53-63.83c-53.25-38.95-102.6-83.46-145.46-133.68
			C264.14,649.1,251.75,689.13,255.74,729.54z M844.9,612.88c-32.64,38.28-69.12,73.22-108.15,104.94
			c-43.04,34.91-89.17,66.05-137.84,92.57c43,14.31,88.07,24.13,133.59,23.38c30.6-0.69,62.08-6.51,88.34-22.97
			c20.45-12.65,36.34-32.5,43.85-55.37c7.02-20.82,7.69-43.31,4.69-64.93C865.61,663.48,856.5,637.47,844.9,612.88z"/>
	</g>
	<g>
		<path d="M478.64,441.62c30.13-13.94,63.73-20.18,96.86-18.1c38.97,2.3,77.09,16.43,108.38,39.74
			c28.66,21.35,51.52,50.34,65.75,83.11c9.43,21.47,14.8,44.56,17.12,67.85c-63.97,39.06-139.41,58.76-214.29,56.65
			c-67.85-1.72-135.24-21.28-193.2-56.65c3.2-34.59,14.13-68.61,33.17-97.78C413.35,484.04,443.52,457.63,478.64,441.62z
			 M494.81,454.75c-10.59,8.14-19.67,19.29-22.29,32.67c-2.41,11.31,0.78,23.31,7.44,32.61c8.02,11.26,19.88,19.22,32.41,24.69
			c22.87,9.79,48.6,11.85,73.03,7.88c15.94-2.66,31.66-8.05,45.01-17.31c10.29-7.21,19.22-17.29,22.48-29.66
			c3.28-11.65,0.5-24.41-6.13-34.36c-8.76-13.34-22.41-22.8-36.99-28.83c-4.73-1.66-9.71-2.43-14.59-3.46
			c8.53,5.9,15.41,14.98,16.44,25.54c1.34,11.17-4.32,22.18-12.84,29.15c-12.64,10.53-30.17,14.02-46.18,11.33
			c-12.58-2.12-24.94-8.39-32.43-18.97c-5.46-7.59-7.47-17.67-4.79-26.69c2.37-8.44,8.36-15.4,15.43-20.36
			C517.61,440.75,505.39,446.84,494.81,454.75z"/>
	</g>
</g>
</svg>
