<?xml version="1.0" encoding="utf-8"?>
<!-- Generator: Adobe Illustrator 27.0.1, SVG Export Plug-In . SVG Version: 6.00 Build 0)  -->
<svg version="1.1" id="Layer_1" xmlns="http://www.w3.org/2000/svg" xmlns:xlink="http://www.w3.org/1999/xlink" x="0px" y="0px"
	 viewBox="0 0 1125 1125" style="enable-background:new 0 0 1125 1125;" xml:space="preserve">
<style type="text/css">
	.st0{fill:#FFFFFF;}
</style>
<g>
	<g>
		<path class="st0" d="M263.9,246.1c40-12,82.7-11.3,123.7-5.4c61,9.1,119.8,29.8,175.3,56.5c35.6-16.9,72.3-31.6,110.2-42.3
			c39.1-11.1,79.6-18.4,120.4-18.3c35.8,0.2,72.8,6.4,103.9,25.1c24.1,14.3,43,37.3,51.9,63.9c11.1,32.6,8.7,68.2,0.5,101.2
			c-12.5,49.4-37.4,94.7-66.2,136.3c25,35.7,46.5,74.3,60.3,115.8c7.5,22.8,12.5,46.5,12.9,70.6c0.4,19.2-2.4,38.7-9.6,56.7
			c-6.3,16-16.2,30.5-28.7,42.2c-24.1,22.7-56.7,34.2-89,38.5c-44.5,5.9-89.8,0.5-133.3-9.8c-46-11-90.4-27.9-133-48.2
			c-59.4,27.9-122.2,50.3-187.7,58c-38.4,4.3-78.1,3.8-115.1-8.2c-26.8-8.6-51.8-24.6-68.1-47.9c-12.9-18-20.1-39.6-22.2-61.5
			c-3.5-35.8,4.7-71.7,17.3-105c13.8-36.1,33.1-69.8,55.1-101.4c-21-30.1-39.5-62.2-53.2-96.3c-10.9-27.5-18.7-56.5-19.9-86.2
			c-1.3-29.3,5-59.7,22-84.1C208.4,271.5,235.3,254.7,263.9,246.1z M287.4,265.9c-28.2,4.7-56.4,16.1-76.3,37.3
			c-17.7,18.6-27.2,43.9-28.7,69.4c-1.9,29.4,4.9,58.6,15.1,86c12.8,33.8,31.1,65.2,52.1,94.5c32-43.8,69.4-83.6,109.9-119.6
			c51.1-45.3,107.2-84.9,167.1-117.6c-41.7-20-85.5-36.2-130.9-45.5C360.2,263.2,323.3,259.9,287.4,265.9z M707.6,275.6
			c-37.3,9.7-73.5,23.6-108.2,40.3C651,344,699.8,377.4,745,415c48.9,40.8,93.8,86.6,131.5,138.1c22.6-31.6,42.1-65.7,54.9-102.5
			c10.2-29.8,16-62,10.4-93.3c-3.2-17.3-10.3-34-21.3-47.8c-10.4-13.1-24.2-23.4-39.2-30.6c-18.9-9-39.8-13.5-60.6-15.3
			C782.5,260.6,744.3,266.2,707.6,275.6z M484.5,384.6c-49.8,36-95.9,77.4-135.4,124.5c-23.6,28.2-44.9,58.6-61.8,91.3
			c32.6,36.9,69.2,70.2,108.4,99.9c51.4,39,107.5,72.1,167.2,96.7c51.3-20.8,99.7-48.4,144.9-80.2c47.8-33.8,92.2-72.5,130.9-116.4
			c-29.2-55.9-70.1-105-115.6-148.4c-48.2-45.6-102.1-85-160-117.3C535.9,349.7,509.7,366.4,484.5,384.6z M255.7,729.5
			c1.9,18.3,7.8,36.3,18.3,51.5c10.5,15.5,25.4,27.7,42.1,35.9c29.7,14.6,63.6,18,96.3,16.5c39.1-1.9,77.6-10.8,114.6-23.1
			c-34.9-19-68.5-40.4-100.5-63.8c-53.2-39-102.6-83.5-145.5-133.7C264.1,649.1,251.8,689.1,255.7,729.5z M844.9,612.9
			c-32.6,38.3-69.1,73.2-108.2,104.9c-43,34.9-89.2,66-137.8,92.6c43,14.3,88.1,24.1,133.6,23.4c30.6-0.7,62.1-6.5,88.3-23
			c20.5-12.7,36.3-32.5,43.8-55.4c7-20.8,7.7-43.3,4.7-64.9C865.6,663.5,856.5,637.5,844.9,612.9z"/>
	</g>
	<g>
		<path class="st0" d="M478.6,441.6c30.1-13.9,63.7-20.2,96.9-18.1c39,2.3,77.1,16.4,108.4,39.7c28.7,21.4,51.5,50.3,65.8,83.1
			c9.4,21.5,14.8,44.6,17.1,67.8c-64,39.1-139.4,58.8-214.3,56.7c-67.9-1.7-135.2-21.3-193.2-56.7c3.2-34.6,14.1-68.6,33.2-97.8
			C413.4,484,443.5,457.6,478.6,441.6z M494.8,454.8c-10.6,8.1-19.7,19.3-22.3,32.7c-2.4,11.3,0.8,23.3,7.4,32.6
			c8,11.3,19.9,19.2,32.4,24.7c22.9,9.8,48.6,11.8,73,7.9c15.9-2.7,31.7-8,45-17.3c10.3-7.2,19.2-17.3,22.5-29.7
			c3.3-11.6,0.5-24.4-6.1-34.4c-8.8-13.3-22.4-22.8-37-28.8c-4.7-1.7-9.7-2.4-14.6-3.5c8.5,5.9,15.4,15,16.4,25.5
			c1.3,11.2-4.3,22.2-12.8,29.1c-12.6,10.5-30.2,14-46.2,11.3c-12.6-2.1-24.9-8.4-32.4-19c-5.5-7.6-7.5-17.7-4.8-26.7
			c2.4-8.4,8.4-15.4,15.4-20.4C517.6,440.8,505.4,446.8,494.8,454.8z"/>
	</g>
</g>
</svg>
